<svg width="48" height="38" viewBox="0 0 48 38" fill="none" xmlns="http://www.w3.org/2000/svg">
<path d="M1 13.7778H47M11.2222 26.5556H13.7778M24 26.5556H26.5556M8.66667 36.7778H39.3333C41.3667 36.7778 43.3167 35.97 44.7545 34.5323C46.1923 33.0945 47 31.1444 47 29.1111V8.66667C47 6.63334 46.1923 4.68329 44.7545 3.24551C43.3167 1.80774 41.3667 1 39.3333 1H8.66667C6.63334 1 4.68329 1.80774 3.24551 3.24551C1.80774 4.68329 1 6.63334 1 8.66667V29.1111C1 31.1444 1.80774 33.0945 3.24551 34.5323C4.68329 35.97 6.63334 36.7778 8.66667 36.7778Z" stroke="#37123C" stroke-width="2" stroke-linecap="round" stroke-linejoin="round"/>
</svg>
