<svg width="48" height="48" viewBox="0 0 48 48" fill="none" xmlns="http://www.w3.org/2000/svg">
<path d="M33.2934 18.4504C35.7582 16.5334 37.1429 13.9333 37.1429 11.2222C37.1429 8.51112 35.7582 5.91106 33.2934 3.99402C30.8286 2.07698 27.4857 1 24 1C20.5143 1 17.1714 2.07698 14.7066 3.99402C12.2418 5.91106 10.8571 8.51112 10.8571 11.2222C10.8571 13.9333 12.2418 16.5334 14.7066 18.4504C17.1714 20.3675 20.5143 21.4444 24 21.4444C27.4857 21.4444 30.8286 20.3675 33.2934 18.4504Z" stroke="#37123C" stroke-width="2" stroke-linecap="round" stroke-linejoin="round"/>
<path d="M7.73654 34.3506C12.0499 30.9958 17.9 29.1111 24 29.1111C30.1 29.1111 35.9501 30.9958 40.2635 34.3506C44.5768 37.7055 47 42.2556 47 47H1C1 42.2556 3.42321 37.7055 7.73654 34.3506Z" stroke="#37123C" stroke-width="2" stroke-linecap="round" stroke-linejoin="round"/>
</svg>
