<svg width="48" height="48" viewBox="0 0 48 48" fill="none" xmlns="http://www.w3.org/2000/svg">
<path d="M13.7778 11.2222V1M34.2222 11.2222V1M11.2222 21.4444H36.7778M6.11111 47H41.8889C43.2444 47 44.5445 46.4615 45.503 45.503C46.4615 44.5445 47 43.2444 47 41.8889V11.2222C47 9.86667 46.4615 8.56664 45.503 7.60812C44.5445 6.6496 43.2444 6.11111 41.8889 6.11111H6.11111C4.75556 6.11111 3.45553 6.6496 2.49701 7.60812C1.53849 8.56664 1 9.86667 1 11.2222V41.8889C1 43.2444 1.53849 44.5445 2.49701 45.503C3.45553 46.4615 4.75556 47 6.11111 47Z" stroke="#37123C" stroke-width="2" stroke-linecap="round" stroke-linejoin="round"/>
</svg>
