<svg width="48" height="41" viewBox="0 0 48 41" fill="none" xmlns="http://www.w3.org/2000/svg">
<g filter="url(#filter0_i_213_710)">
<path d="M1.8754 8.05154C2.45333 6.66565 3.30042 5.40641 4.36831 4.3457C5.43618 3.28499 6.70393 2.44358 8.09918 1.86952C9.49443 1.29546 10.9899 1 12.5001 1C14.0103 1 15.5057 1.29546 16.9009 1.86952C18.2962 2.44358 19.5639 3.28499 20.6318 4.3457L24 7.69131L27.3682 4.3457C29.5249 2.2035 32.45 1.00003 35.5 1.00003C38.55 1.00003 41.475 2.2035 43.6317 4.3457C45.7884 6.4879 47 9.39335 47 12.4229C47 15.4524 45.7884 18.3578 43.6317 20.5L24 40L4.36831 20.5C3.30042 19.4393 2.45333 18.1801 1.8754 16.7942C1.29746 15.4083 1 13.9229 1 12.4229C1 10.9228 1.29746 9.43742 1.8754 8.05154Z" stroke="#37123C" stroke-width="2" stroke-linecap="round" stroke-linejoin="round"/>
</g>
<defs>
<filter id="filter0_i_213_710" x="0" y="0" width="48" height="43" filterUnits="userSpaceOnUse" color-interpolation-filters="sRGB">
<feFlood flood-opacity="0" result="BackgroundImageFix"/>
<feBlend mode="normal" in="SourceGraphic" in2="BackgroundImageFix" result="shape"/>
<feColorMatrix in="SourceAlpha" type="matrix" values="0 0 0 0 0 0 0 0 0 0 0 0 0 0 0 0 0 0 127 0" result="hardAlpha"/>
<feOffset dy="2"/>
<feGaussianBlur stdDeviation="5"/>
<feComposite in2="hardAlpha" operator="arithmetic" k2="-1" k3="1"/>
<feColorMatrix type="matrix" values="0 0 0 0 1 0 0 0 0 0.176471 0 0 0 0 0.470588 0 0 0 0.3 0"/>
<feBlend mode="normal" in2="shape" result="effect1_innerShadow_213_710"/>
</filter>
</defs>
</svg>
